<svg xmlns="http://www.w3.org/2000/svg" xmlns:xlink="http://www.w3.org/1999/xlink" width="500" zoomAndPan="magnify" viewBox="0 0 375 374.999991" height="500" preserveAspectRatio="xMidYMid meet" version="1.0">
  <defs>
    <clipPath id="edd9bd0c62">
    <path d="M 197 159.738281 L 349.5 159.738281 L 349.5 215 L 197 215 Z M 197 159.738281 " clip-rule="nonzero"/>
    </clipPath>
    <clipPath id="acdeff89fb">
    <path d="M 25.5 159.738281 L 178 159.738281 L 178 215 L 25.5 215 Z M 25.5 159.738281 " clip-rule="nonzero"/>
    </clipPath>
  </defs>
  <!-- <rect x="-37.5" width="450" fill="none" y="-37.499999" height="449.999989" fill-opacity="1"/>
  <rect x="-37.5" width="450" fill="none" y="-37.499999" height="449.999989" fill-opacity="1"/>
  <rect x="-37.5" width="450" fill="none" y="-37.499999" height="449.999989" fill-opacity="1"/> -->
  <g clip-path="url(#edd9bd0c62)">
    <path fill="#28316f" d="M 301.742188 190.164062 C 307.375 197.207031 313.113281 204.28125 318.703125 211.457031 C 320.113281 213.265625 318.945312 215.238281 316.578125 214.691406 C 312.628906 213.796875 308.53125 212.71875 305.039062 210.746094 C 296.71875 205.996094 292.34375 199.652344 290.355469 190.773438 C 285.632812 190.773438 280.851562 190.710938 276.070312 190.789062 C 265.242188 190.953125 254.402344 191.183594 243.5625 191.425781 C 230.488281 191.714844 217.417969 192.0625 204.34375 192.335938 C 202.585938 192.367188 200.777344 192.199219 199.03125 191.878906 C 198.484375 191.773438 198.089844 190.894531 197.632812 190.363281 C 198.136719 190.027344 198.621094 189.453125 199.136719 189.40625 C 200.808594 189.253906 202.492188 189.332031 204.164062 189.300781 C 229.640625 188.832031 255.117188 188.390625 280.59375 187.875 C 284.054688 187.8125 287.5 187.464844 291.417969 187.207031 C 293.558594 174.183594 304.703125 168.3125 313.480469 160.480469 C 314.054688 159.964844 315.574219 159.738281 316.105469 160.117188 C 316.683594 160.554688 316.984375 161.9375 316.789062 162.742188 C 314.300781 173 310.714844 182.53125 299.449219 186.660156 C 304.003906 188.117188 306.3125 187.480469 309.425781 184.582031 C 314.527344 179.859375 320.765625 179.070312 327.28125 180.179688 C 333.855469 181.300781 340.382812 182.730469 346.894531 184.15625 C 347.835938 184.351562 349.160156 185.1875 349.324219 185.945312 C 349.492188 186.691406 348.628906 188.027344 347.851562 188.558594 C 341.308594 192.929688 334.386719 196.496094 326.371094 197.238281 C 321.269531 197.707031 316.257812 196.738281 312.675781 193.125 C 309.136719 189.542969 305.3125 189.800781 301.742188 190.164062 Z M 294.242188 192.289062 C 296.734375 201.304688 306.769531 210.425781 313.449219 210.367188 C 306.253906 198.574219 301.484375 193.246094 296.929688 191.804688 C 299.191406 195.203125 301.515625 198.679688 303.851562 202.171875 C 303.488281 202.429688 303.125 202.6875 302.773438 202.945312 C 300.117188 199.621094 297.460938 196.296875 294.242188 192.289062 Z M 340.171875 188.859375 C 330.757812 188.859375 321.722656 188.859375 312.445312 188.859375 C 319.6875 196.191406 331.074219 194.765625 340.171875 188.859375 Z M 312.386719 165.457031 C 305.585938 171.105469 298.265625 175.339844 294.863281 183.671875 C 298.507812 180.210938 301.957031 176.933594 305.417969 173.667969 C 305.75 173.988281 306.085938 174.304688 306.417969 174.625 C 304.066406 177.371094 301.726562 180.117188 299.039062 183.277344 C 306.328125 180.117188 310.546875 174.503906 312.386719 165.457031 Z M 335.359375 186.21875 C 325.199219 182.226562 317.09375 181.058594 312.308594 186.21875 C 319.871094 186.21875 327.613281 186.21875 335.359375 186.21875 Z M 335.359375 186.21875 " fill-opacity="1" fill-rule="nonzero"/>
  </g>
  <g clip-path="url(#acdeff89fb)">
    <path fill="#28316f" d="M 75.199219 187.328125 C 64.328125 182.5625 60.6875 173.09375 58.210938 162.847656 C 58 162.011719 58.273438 160.785156 58.804688 160.148438 C 59.121094 159.753906 60.671875 159.765625 61.171875 160.191406 C 66.820312 165.078125 72.757812 169.722656 77.796875 175.203125 C 80.742188 178.402344 82.183594 183.003906 84.839844 187.996094 C 89.835938 187.996094 95.742188 187.917969 101.648438 188.011719 C 126.015625 188.421875 150.371094 188.875 174.722656 189.390625 C 175.605469 189.40625 176.46875 190.179688 177.335938 190.605469 C 176.46875 191.089844 175.589844 192.003906 174.722656 192.003906 C 163.335938 191.988281 151.933594 191.867188 140.546875 191.714844 C 135.855469 191.652344 131.179688 191.410156 126.488281 191.320312 C 113.960938 191.078125 101.453125 190.863281 88.941406 190.636719 C 87.515625 190.621094 86.070312 190.636719 84.855469 190.636719 C 81.410156 203.355469 73.425781 211.03125 61.15625 214.417969 C 60.414062 214.628906 59.59375 214.871094 58.863281 214.75 C 57.863281 214.585938 56.433594 214.3125 56.085938 213.628906 C 55.734375 212.960938 56.253906 211.503906 56.84375 210.746094 C 62.296875 203.792969 67.851562 196.917969 73.242188 190.164062 C 69.902344 190.027344 66.257812 189.421875 62.628906 192.835938 C 56.433594 198.679688 48.644531 198.285156 41.207031 195.613281 C 36.332031 193.851562 31.808594 191.078125 27.207031 188.585938 C 26.402344 188.148438 25.78125 186.949219 25.582031 185.992188 C 25.507812 185.566406 26.644531 184.519531 27.34375 184.398438 C 35.632812 182.804688 43.910156 181 52.273438 179.96875 C 58.105469 179.238281 63.191406 181.5 66.941406 186.324219 C 67.382812 186.886719 68.414062 187.222656 69.203125 187.28125 C 71.191406 187.417969 73.195312 187.328125 75.199219 187.328125 Z M 72.269531 202.867188 C 71.890625 202.609375 71.496094 202.367188 71.117188 202.109375 C 73.453125 198.632812 75.792969 195.160156 78.496094 191.152344 C 69.886719 195.613281 66.699219 203.945312 61.050781 210.578125 C 69.035156 209.804688 78.785156 200.757812 80.5 192.578125 C 77.585938 196.222656 74.925781 199.542969 72.269531 202.867188 Z M 34.496094 188.695312 C 44.683594 195.597656 57.421875 195.433594 62.171875 188.695312 C 53.15625 188.695312 44.167969 188.695312 34.496094 188.695312 Z M 62.855469 165.703125 C 63.496094 173.121094 69.71875 181.804688 75.519531 182.746094 C 73.195312 180.027344 70.875 177.328125 68.566406 174.625 C 68.898438 174.304688 69.234375 173.988281 69.566406 173.652344 C 73.015625 176.933594 76.460938 180.210938 80.121094 183.683594 C 76.671875 175.324219 69.386719 171.074219 62.855469 165.703125 Z M 39.628906 185.339844 C 39.613281 185.628906 39.597656 185.929688 39.597656 186.21875 C 47.355469 186.21875 55.128906 186.21875 63.25 186.21875 C 55.296875 180.210938 47.445312 183.503906 39.628906 185.339844 Z M 39.628906 185.339844 " fill-opacity="1" fill-rule="nonzero"/>
  </g>
</svg>
