<svg version="1.2" xmlns="http://www.w3.org/2000/svg" viewBox="0 0 494 116" width="494" height="116">
	<title>Sans titre (4)</title>
	<style>
		.s0 { fill: #000000 } 
		.s1 { fill: #ffffff } 
	</style>
	<g id="Background">
		<path id="Path 1" class="s0" d="m248.9 33c0.3 0 2.5 1.8 4.8 4 2.4 2.2 4.1 4.6 3.8 5.3-0.2 0.6-1.6 1.8-3 2.5-1.5 0.7-2.4 1.9-2.2 3 0.1 0.9 1.8 2.5 3.7 3.4 1.9 1 5.3 1.8 7.5 1.8 2.7 0.1 4.6-0.6 8-4l-2-2c-1.8-1.9-1.8-2.1-0.3-2 1 0 2.2 0.9 2.8 2 0.6 1.1 0.8 2.9 0.5 4-0.3 1.1-2.2 2.7-4.3 3.6-3.2 1.3-4.4 1.4-8.7 0.3-2.8-0.7-6.2-2.3-10.5-5.9l-2.8 2.3c-1.5 1.3-5 2.9-7.7 3.6-4.5 1.2-5.4 1.1-9-0.5-2.9-1.4-4.1-2.6-4.3-4.4-0.1-1.4 0.3-3.1 1-3.8 0.7-0.7 2-1.3 2.8-1.3 1.3 0 1.2 0.3-0.2 1.8-1 1-1.8 2.1-1.8 2.6 0 0.4 0.7 1.4 1.5 2.2 0.9 0.9 3.3 1.5 5.7 1.5 2.4 0 5.9-0.8 7.8-1.8 1.9-0.9 3.6-2.5 3.7-3.4 0.2-1.1-0.8-2.4-2.7-3.3-1.7-0.8-3.1-2-3.1-2.7-0.1-0.6 1.7-2.8 4.1-5 2.4-2.1 4.6-3.8 4.9-3.8zm-29.7 16c0.5 0 0.8 0.7 0.8 1.5 0 0.8 1 2.4 4.5 5.7l-5.5-0.7c-3-0.4-6.2-1.1-7-1.5-1.1-0.6-0.5-1.3 2.5-2.8 2.2-1.2 4.3-2.1 4.7-2.2zm61.5 1.1c1.5 0.6 3.7 1.5 4.8 2.1 1.7 0.9 1.8 1.2 0.5 1.8-0.8 0.4-4 1.1-7 1.5-5.3 0.7-5.4 0.7-3.9-1.1 0.9-1.1 1.9-2.7 2.2-3.6 0.5-1.5 1.1-1.6 3.4-0.7zm-105.3 5.2c7.8 0.4 21.5 1.5 30.6 2.7 9.1 1.1 19.9 2 24 2.1 7.2 0.1 7.3 0.1 3.5 1.2-2.8 0.7-7.7 0.7-17-0.2-7.2-0.6-19.1-1.8-26.5-2.6-7.4-0.8-17-1.5-21.3-1.5-5.2 0-7.6-0.4-7.5-1.2 0.1-0.8 3.9-0.9 14.2-0.5zm150.3-0.1c6.3-0.1 10.3 0.2 10.3 0.8 0 0.6-2.9 1-6.8 1-3.7 0-18.6 1.2-33.2 2.7-21.1 2.1-27.4 2.5-35.5 0.5l7.5-0.1c4.1 0 14.9-1 24-2.1 9.1-1.1 18.1-2.1 20-2.3 1.9-0.2 8.1-0.5 13.7-0.5zm-291.5 1.8c0.5 0 1 0.9 1.3 2 0.3 1.1 1.5 2.3 5 3.3l-2.3 1.1c-1.3 0.6-2.5 1.9-2.7 2.8-0.3 1-0.8 1.8-1.3 1.8-0.4 0-2.4-1.1-4.5-2.5-2-1.4-3.8-2.7-3.8-3-0.1-0.2 1.6-1.6 3.7-3 2.2-1.4 4.2-2.5 4.6-2.5zm429.8 0c0.3 0 2.2 1.3 4.3 2.8 2.1 1.5 3.8 2.8 3.7 2.9 0 0.2-1.8 1.5-8 5.8l-2-2.8c-1.1-1.5-2.8-2.7-3.8-2.7-1 0-2.2 0.5-2.8 1.1-0.6 0.7-1.5 0.7-3.1-0.3-2.2-1.3-2.2-1.3-0.2-2.8 1.7-1.2 2.3-1.3 3.2-0.2 0.7 0.7 2 1.2 2.9 1.2 1 0 2.6-1.1 3.5-2.5 1-1.3 2-2.4 2.3-2.5zm-215.1 2c0.3-0.1 1.4 0.7 2.4 1.7 1.6 1.7 1.6 1.9-2.3 5.8l-2-2c-1.9-1.9-1.9-2.1-0.4-3.8 1-0.9 2-1.7 2.3-1.7zm-205 1c0.3 0 1.4 0.6 2.3 1.3 1.5 1.1 1.5 1.3-0.3 2.4-1.5 1-2.2 1-3.4 0-1.1-0.9-1.2-1.5-0.4-2.5 0.6-0.6 1.4-1.2 1.8-1.2zm123.1 1.4c6.3-0.1 12.6 0.1 14 0.5 2.4 0.7 2.4 0.7-1 1.5-1.9 0.4-30.1 0.4-121.5-0.9l48.5-0.5c26.7-0.3 53.7-0.6 60-0.6zm170.5 0.1c9.9 0.3 36.9 0.6 102 0.8l-58.5 1c-32.2 0.5-60.5 0.5-63 0.1-4.4-0.7-4.5-0.8-1.5-1.5 1.6-0.5 11.1-0.6 21-0.4zm-113 2.8c7.1 0 10.3 0.2 7 0.4-3.3 0.2-15.9 1.5-28 2.8-12.1 1.4-26.4 2.5-31.8 2.5-5.8 0-9.7-0.4-9.7-1 0-0.6 3.8-1 9.2-1.1 5.1 0 16.3-0.8 24.8-1.9 8.5-1 21.3-1.7 28.5-1.7zm47.5-0.1c6.3-0.1 19.4 0.7 29 1.8 9.6 1.1 21.4 2 26.2 2 5.2 0 8.8 0.4 8.8 1 0 0.6-3.9 1-9.8 1-5.3 0-19.6-1.1-31.7-2.5-12.1-1.3-24.7-2.6-28-2.8-3.3-0.2-0.8-0.4 5.5-0.5zm-47.5 4.8l-2.3 2c-1.2 1.1-2.2 2.7-2.2 3.5 0 0.8-0.2 1.5-0.5 1.5-0.3 0-2.3-0.9-4.5-2-2.2-1.1-3.7-2.3-3.4-2.8 0.3-0.4 2.3-1 4.3-1.3 2-0.4 4.7-0.7 8.6-0.9zm54.5 0.5c3 0.4 6.2 1.1 7 1.5 1.1 0.6 0.4 1.3-2.8 2.9-2.3 1.2-4.7 1.9-5.2 1.6-0.6-0.3-1-1.1-1-1.8 0-0.6-0.8-2-1.8-3.1-1.6-1.8-1.5-1.8 3.8-1.1zm-44.8 0.5c2.7 0 6 0.5 7.5 1.1 1.6 0.6 3.8 2 7.3 5.4l2.2-2.2c1.3-1.2 3.5-2.6 5-3.2 1.6-0.6 4.9-1.1 7.5-1.1 2.7 0 5.8 0.7 7 1.5 1.6 1 2.2 2.3 2 4.2-0.1 1.8-1.1 3.2-2.7 4-1.4 0.6-2.7 1-3 0.8-0.3-0.3 0.6-1.3 4.5-4.3l-2-2.1c-1.4-1.5-3.2-2.2-6-2.1-2.2 0-5.6 0.8-7.5 1.8-2.2 1.1-3.6 2.5-3.8 3.9-0.1 1.3 0.3 2.3 1 2.3 0.7-0.1 2.2 0.9 5.3 4l-4.5 4c-2.5 2.2-4.7 4.1-5 4.1-0.3 0-2.4-1.7-4.7-3.8-2.3-2.1-4.2-4.4-4.3-5 0-0.7 1.3-2 3-2.8 1.9-0.9 2.9-2.2 2.7-3.3-0.1-0.9-1.7-2.5-3.5-3.5-1.8-0.9-5.2-1.7-7.7-1.7-2.5 0-5 0.6-5.9 1.5-0.9 0.8-1.6 1.8-1.6 2.3 0 0.4 0.8 1.5 1.8 2.5 1.4 1.5 1.4 1.8 0.2 1.7-0.8 0-2.1-0.5-2.8-1.2-0.7-0.7-1.3-2.3-1.4-3.5 0-1.3 0.9-2.8 2.3-3.8 1.3-0.8 4.5-1.5 7.1-1.5z"/>
		<path id="Path 2" class="s1" d="m248.9 36c0.3 0 2 1.3 6.6 6l-2.8 1c-1.5 0.5-2.9 1.6-3.1 2.3-0.3 0.8-0.7 0.9-1.3 0.1-0.4-0.6-1.9-1.7-5.8-3.6l2.9-2.9c1.6-1.6 3.2-2.9 3.5-2.9zm0.1 43c0.6 0 1 0.4 1 1 0 0.6 1.1 1.6 5.1 3.5l-6.1 6-6.5-6.4 2.7-1.1c1.6-0.5 2.8-1.4 2.8-2 0-0.6 0.4-1 1-1z"/>
	</g>
</svg>